<?xml version="1.0" encoding="UTF-8"?>
<svg id="Vrstva_1" data-name="Vrstva 1" xmlns="http://www.w3.org/2000/svg" viewBox="0 0 360.68 40.69">
  <defs>
    <style>
      .cls-1 {
        fill: #343434;
      }
    </style>
  </defs>
  <path class="cls-1" d="M4.41,21.12c-1.18-.75-1.81-1.48-2.09-2.19-.18-.43-.23-.83-.18-1.21,1.41.68,2.99,1.48,4.65,2.34-3.34,2.54-5.33,7.89-4.35,19.41l2.14-.15v-.08c-.08-1.18-.05-3.95,2.09-5.91,2.29-2.14,6.96-3.42,16.39-1.38,1.86,2.34,2.99,4.83,2.87,7.39l1.99.58c3.12-5.33,3.34-10.48,3.49-14.46.13-2.92.2-5.13,1.43-5.86.8-.48,1.63-.5,2.61-.53h.28c.1.33.18.75.28,1.18.18.96.3,1.94.3,2.44l1.84.73c.5-.53.93-1.46,1.28-2.49.28-.85.5-1.81.6-2.67.4-.2.8-.45,1.18-.75.58-.45,1.11-1.06,1.61-1.84l.75-1.18-1.33-.4c-1.84-.55-3.9-1.66-5.25-2.36l-.35-.2c-.1-5.93-5.08-8.25-9.93-10.48l-.65-.3-.91,1.94.68.3c4.37,2.04,8.9,4.1,8.67,9.15l-.03.7.63.3c.3.15.58.3.91.45,1.08.58,2.61,1.38,4.17,2.01-.1.1-.2.18-.3.25-.38.33-.78.53-1.18.68l-.63.25-.08.65c-.03.38-.1.78-.18,1.21-.13-.48-.28-.91-.4-1.18l-.33-.6-.68.05c-.4.03-.73.05-1.01.05-1.31.03-2.39.08-3.65.8-2.21,1.33-2.34,4.02-2.46,7.62-.13,2.94-.28,6.59-1.73,10.38-1.28-4.12-4.9-7.87-9.23-11.09-2.11-1.58-4.4-3.04-6.64-4.35,1.71-.43,3.6-.5,5.48-.6,5.83-.28,11.77-.55,14.53-8.35l-2.01-.7c-2.29,6.46-7.49,6.69-12.62,6.94-2.84.13-5.66.25-8.07,1.23-2.59-1.41-5.05-2.61-7.04-3.6l-.96-.45-.48.96c-.5,1.08-.8,2.46-.2,3.97.43,1.06,1.33,2.16,2.94,3.17l1.13-1.79h0ZM9.16,21.35c2.67,1.48,5.41,3.17,7.92,5.03,1.26.96,2.46,1.94,3.55,2.97-8.4-1.36-12.95.18-15.39,2.44-.33.3-.6.6-.85.93.25-6.66,2.11-9.83,4.78-11.36h0Z"/>
  <g>
    <path class="cls-1" d="M114.74,13.86c-5.72,4.86-16.55,4.32-21.1-1.72-3.43-4.53-7.65-10.13-16.47-10.13h0c-.94-.06-7.83-.29-12.02,5.8l.27.18c.97.67,2.25.55,3.08-.29,3.64-3.65,8.55-3.19,8.56-3.18h.11c7.56,0,11.37,5.05,14.45,9.12,4.87,6.47,14.69,7.45,21.7,4.06.3-.14.57-.29.84-.43.61-.33.99-.87,1.11-1.55s-.05-1.31-.5-1.84l-.02-.04h0Z"/>
    <path class="cls-1" d="M59.51,0l-1.05,3.8-7.5,7.06.79.92c.88,1.03,1.98,1.53,3.32,1.55,1.17.02,2.48-.35,3.98-1.05.17-.08,1.16,1.31,2.32,2.95,1.59,2.26,4.63,6.76,6.91,7.61.68.24,1.41.08,1.92-.43s.67-1.23.42-1.91l-.02-.06c-2.07.76-5.41-4.16-7.17-6.65-1.83-2.58-3.38-4.78-5.46-3.79-1.15.55-2.1.82-2.87.81-.13,0-.25-.01-.37-.04l5.71-5.37.35-.59.5-1.8c.36-1.29-.41-2.64-1.7-2.99l-.08-.02h0Z"/>
    <path class="cls-1" d="M79.03,8.16c-2.97.7-7.33,2.64-6.59,7.82.74,5.22,5.56,6.88,8.38,7.4l-6.52,11.07-6.29,2.91c-1.22.56-1.74,2.01-1.18,3.22l.04.1,8.85-4.11.56-.51,8.78-14.89-2.13-.07s-7.24-.18-7.99-5.48c-.72-4.98,6.82-5.35,6.83-5.35v-.07c-.04-.68-.35-1.25-.9-1.66-.55-.42-1.18-.55-1.84-.38h0Z"/>
  </g>
  <path class="cls-1" d="M127.1,21.12c-1.18-.75-1.81-1.48-2.09-2.19-.18-.43-.23-.83-.18-1.21,1.41.68,2.99,1.48,4.65,2.34-3.34,2.54-5.33,7.89-4.35,19.41l2.14-.15v-.08c-.08-1.18-.05-3.95,2.09-5.91,2.29-2.14,6.96-3.42,16.39-1.38,1.86,2.34,2.99,4.83,2.87,7.39l1.99.58c3.12-5.33,3.34-10.48,3.49-14.46.13-2.92.2-5.13,1.43-5.86.8-.48,1.63-.5,2.61-.53h.28c.1.33.18.75.28,1.18.18.96.3,1.94.3,2.44l1.84.73c.5-.53.93-1.46,1.28-2.49.28-.85.5-1.81.6-2.67.4-.2.8-.45,1.18-.75.58-.45,1.11-1.06,1.61-1.84l.75-1.18-1.33-.4c-1.84-.55-3.9-1.66-5.25-2.36l-.35-.2c-.1-5.93-5.08-8.25-9.93-10.48l-.65-.3-.91,1.94.68.3c4.37,2.04,8.9,4.1,8.67,9.15l-.03.7.63.3c.3.15.58.3.91.45,1.08.58,2.61,1.38,4.17,2.01-.1.1-.2.18-.3.25-.38.33-.78.53-1.18.68l-.63.25-.08.65c-.03.38-.1.78-.18,1.21-.13-.48-.28-.91-.4-1.18l-.33-.6-.68.05c-.4.03-.73.05-1.01.05-1.31.03-2.39.08-3.65.8-2.21,1.33-2.34,4.02-2.46,7.62-.13,2.94-.28,6.59-1.73,10.38-1.28-4.12-4.9-7.87-9.23-11.09-2.11-1.58-4.4-3.04-6.64-4.35,1.71-.43,3.6-.5,5.48-.6,5.83-.28,11.77-.55,14.53-8.35l-2.01-.7c-2.29,6.46-7.49,6.69-12.62,6.94-2.84.13-5.66.25-8.07,1.23-2.59-1.41-5.05-2.61-7.04-3.6l-.96-.45-.48.96c-.5,1.08-.8,2.46-.2,3.97.43,1.06,1.33,2.16,2.94,3.17l1.13-1.79h0ZM131.85,21.35c2.67,1.48,5.41,3.17,7.92,5.03,1.26.96,2.46,1.94,3.55,2.97-8.4-1.36-12.95.18-15.39,2.44-.33.3-.6.6-.85.93.25-6.66,2.11-9.83,4.78-11.36h0Z"/>
  <g>
    <path class="cls-1" d="M237.43,13.86c-5.72,4.86-16.55,4.32-21.1-1.72-3.43-4.53-7.65-10.13-16.47-10.13h0c-.94-.06-7.83-.29-12.02,5.8l.27.18c.97.67,2.25.55,3.08-.29,3.64-3.65,8.55-3.19,8.56-3.18h.11c7.56,0,11.37,5.05,14.45,9.12,4.87,6.47,14.69,7.45,21.7,4.06.3-.14.57-.29.84-.43.61-.33.99-.87,1.11-1.55s-.05-1.31-.5-1.84l-.02-.04h0Z"/>
    <path class="cls-1" d="M182.2,0l-1.05,3.8-7.5,7.06.79.92c.88,1.03,1.98,1.53,3.32,1.55,1.17.02,2.48-.35,3.98-1.05.17-.08,1.16,1.31,2.32,2.95,1.59,2.26,4.63,6.76,6.91,7.61.68.24,1.41.08,1.92-.43s.67-1.23.42-1.91l-.02-.06c-2.07.76-5.41-4.16-7.17-6.65-1.83-2.58-3.38-4.78-5.46-3.79-1.15.55-2.1.82-2.87.81-.13,0-.25-.01-.37-.04l5.71-5.37.35-.59.5-1.8c.36-1.29-.41-2.64-1.7-2.99l-.08-.02h0Z"/>
    <path class="cls-1" d="M201.71,8.16c-2.97.7-7.33,2.64-6.59,7.82.74,5.22,5.56,6.88,8.38,7.4l-6.52,11.07-6.29,2.91c-1.22.56-1.74,2.01-1.18,3.22l.04.1,8.85-4.11.56-.51,8.78-14.89-2.13-.07s-7.24-.18-7.99-5.48c-.72-4.98,6.82-5.35,6.83-5.35v-.07c-.04-.68-.35-1.25-.9-1.66-.55-.42-1.18-.55-1.84-.38h0Z"/>
  </g>
  <path class="cls-1" d="M249.79,21.12c-1.18-.75-1.81-1.48-2.09-2.19-.18-.43-.23-.83-.18-1.21,1.41.68,2.99,1.48,4.65,2.34-3.34,2.54-5.33,7.89-4.35,19.41l2.14-.15v-.08c-.08-1.18-.05-3.95,2.09-5.91,2.29-2.14,6.96-3.42,16.39-1.38,1.86,2.34,2.99,4.83,2.87,7.39l1.99.58c3.12-5.33,3.34-10.48,3.49-14.46.13-2.92.2-5.13,1.43-5.86.8-.48,1.63-.5,2.61-.53h.28c.1.33.18.75.28,1.18.18.96.3,1.94.3,2.44l1.84.73c.5-.53.93-1.46,1.28-2.49.28-.85.5-1.81.6-2.67.4-.2.8-.45,1.18-.75.58-.45,1.11-1.06,1.61-1.84l.75-1.18-1.33-.4c-1.84-.55-3.9-1.66-5.25-2.36l-.35-.2c-.1-5.93-5.08-8.25-9.93-10.48l-.65-.3-.91,1.94.68.3c4.37,2.04,8.9,4.1,8.67,9.15l-.03.7.63.3c.3.15.58.3.91.45,1.08.58,2.61,1.38,4.17,2.01-.1.1-.2.18-.3.25-.38.33-.78.53-1.18.68l-.63.25-.08.65c-.03.38-.1.78-.18,1.21-.13-.48-.28-.91-.4-1.18l-.33-.6-.68.05c-.4.03-.73.05-1.01.05-1.31.03-2.39.08-3.65.8-2.21,1.33-2.34,4.02-2.46,7.62-.13,2.94-.28,6.59-1.73,10.38-1.28-4.12-4.9-7.87-9.23-11.09-2.11-1.58-4.4-3.04-6.64-4.35,1.71-.43,3.6-.5,5.48-.6,5.83-.28,11.77-.55,14.53-8.35l-2.01-.7c-2.29,6.46-7.49,6.69-12.62,6.94-2.84.13-5.66.25-8.07,1.23-2.59-1.41-5.05-2.61-7.04-3.6l-.96-.45-.48.96c-.5,1.08-.8,2.46-.2,3.97.43,1.06,1.33,2.16,2.94,3.17l1.13-1.79h0ZM254.54,21.35c2.67,1.48,5.41,3.17,7.92,5.03,1.26.96,2.46,1.94,3.55,2.97-8.4-1.36-12.95.18-15.39,2.44-.33.3-.6.6-.85.93.25-6.66,2.11-9.83,4.78-11.36h0Z"/>
  <g>
    <path class="cls-1" d="M360.12,13.86c-5.72,4.86-16.55,4.32-21.1-1.72-3.43-4.53-7.65-10.13-16.47-10.13h0c-.94-.06-7.83-.29-12.02,5.8l.27.18c.97.67,2.25.55,3.08-.29,3.64-3.65,8.55-3.19,8.56-3.18h.11c7.56,0,11.37,5.05,14.45,9.12,4.87,6.47,14.69,7.45,21.7,4.06.3-.14.57-.29.84-.43.61-.33.99-.87,1.11-1.55s-.05-1.31-.5-1.84l-.02-.04h0Z"/>
    <path class="cls-1" d="M304.89,0l-1.05,3.8-7.5,7.06.79.92c.88,1.03,1.98,1.53,3.32,1.55,1.17.02,2.48-.35,3.98-1.05.17-.08,1.16,1.31,2.32,2.95,1.59,2.26,4.63,6.76,6.91,7.61.68.24,1.41.08,1.92-.43s.67-1.23.42-1.91l-.02-.06c-2.07.76-5.41-4.16-7.17-6.65-1.83-2.58-3.38-4.78-5.46-3.79-1.15.55-2.1.82-2.87.81-.13,0-.25-.01-.37-.04l5.71-5.37.35-.59.5-1.8c.36-1.29-.41-2.64-1.7-2.99l-.08-.02h0Z"/>
    <path class="cls-1" d="M324.4,8.16c-2.97.7-7.33,2.64-6.59,7.82.74,5.22,5.56,6.88,8.38,7.4l-6.52,11.07-6.29,2.91c-1.22.56-1.74,2.01-1.18,3.22l.04.1,8.85-4.11.56-.51,8.78-14.89-2.13-.07s-7.24-.18-7.99-5.48c-.72-4.98,6.82-5.35,6.83-5.35v-.07c-.04-.68-.35-1.25-.9-1.66-.55-.42-1.18-.55-1.84-.38h0Z"/>
  </g>
</svg>