<?xml version="1.0" encoding="UTF-8"?>
<svg id="Vrstva_1" data-name="Vrstva 1" xmlns="http://www.w3.org/2000/svg" viewBox="0 0 729.86 40.75">
  <defs>
    <style>
      .cls-1 {
        fill: #343434;
      }
    </style>
  </defs>
  <path class="cls-1" d="M4.41,21.15c-1.18-.76-1.81-1.49-2.09-2.19-.18-.43-.23-.83-.18-1.21,1.41.68,3,1.49,4.66,2.34-3.35,2.54-5.34,7.91-4.36,19.44l2.14-.15v-.08c-.08-1.18-.05-3.95,2.09-5.92,2.29-2.14,6.97-3.42,16.42-1.38,1.86,2.34,3,4.83,2.87,7.4l1.99.58c3.12-5.34,3.35-10.5,3.5-14.48.13-2.92.2-5.14,1.44-5.87.81-.48,1.64-.5,2.62-.53h.28c.1.33.18.76.28,1.18.18.96.3,1.94.3,2.44l1.84.73c.5-.53.93-1.46,1.28-2.49.28-.86.5-1.81.6-2.67.4-.2.81-.45,1.18-.76.58-.45,1.11-1.06,1.61-1.84l.76-1.18-1.33-.4c-1.84-.55-3.9-1.66-5.26-2.37l-.35-.2c-.1-5.94-5.09-8.26-9.95-10.5l-.65-.3-.91,1.94.68.3c4.38,2.04,8.91,4.1,8.69,9.17l-.03.71.63.3c.3.15.58.3.91.45,1.08.58,2.62,1.39,4.18,2.01-.1.1-.2.18-.3.25-.38.33-.78.53-1.18.68l-.63.25-.08.65c-.03.38-.1.78-.18,1.21-.13-.48-.28-.91-.4-1.18l-.33-.6-.68.05c-.4.03-.73.05-1.01.05-1.31.03-2.39.08-3.65.81-2.22,1.33-2.34,4.03-2.47,7.63-.13,2.95-.28,6.6-1.74,10.4-1.28-4.13-4.91-7.88-9.24-11.1-2.12-1.59-4.41-3.05-6.65-4.36,1.71-.43,3.6-.5,5.49-.6,5.84-.28,11.78-.55,14.55-8.36l-2.01-.71c-2.29,6.47-7.5,6.7-12.64,6.95-2.85.13-5.67.25-8.08,1.23-2.59-1.41-5.06-2.62-7.05-3.6l-.96-.45-.48.96c-.5,1.08-.81,2.47-.2,3.98.43,1.06,1.33,2.17,2.95,3.17l1.13-1.79h0ZM9.17,21.38c2.67,1.49,5.41,3.17,7.93,5.04,1.26.96,2.47,1.94,3.55,2.97-8.41-1.36-12.97.18-15.41,2.44-.33.3-.6.6-.86.93.25-6.67,2.12-9.85,4.78-11.38h0Z"/>
  <g>
    <path class="cls-1" d="M114.92,13.89c-5.73,4.87-16.58,4.33-21.13-1.72-3.43-4.53-7.67-10.14-16.49-10.14h0c-.94-.06-7.85-.29-12.04,5.81l.27.18c.97.67,2.25.55,3.09-.29,3.65-3.66,8.56-3.19,8.58-3.18h.11c7.57,0,11.39,5.06,14.47,9.14,4.88,6.48,14.71,7.46,21.73,4.07.3-.14.57-.29.84-.43.61-.33.99-.87,1.11-1.55s-.05-1.32-.5-1.84l-.02-.04h0Z"/>
    <path class="cls-1" d="M59.6,0l-1.05,3.8-7.51,7.07.79.92c.88,1.03,1.99,1.53,3.32,1.55,1.17.02,2.49-.35,3.98-1.05.17-.08,1.16,1.32,2.32,2.95,1.59,2.26,4.64,6.77,6.92,7.62.68.24,1.41.08,1.93-.43s.67-1.23.42-1.91l-.02-.06c-2.07.77-5.42-4.16-7.18-6.66-1.83-2.58-3.38-4.78-5.47-3.79-1.15.55-2.1.83-2.87.81-.13,0-.25-.01-.37-.04l5.72-5.38.35-.59.5-1.81c.36-1.29-.41-2.64-1.7-2.99L59.6,0h0Z"/>
    <path class="cls-1" d="M79.15,8.17c-2.98.71-7.34,2.64-6.6,7.83.74,5.23,5.57,6.89,8.4,7.41l-6.53,11.09-6.3,2.92c-1.22.56-1.75,2.01-1.18,3.23l.04.1,8.86-4.11.56-.51,8.79-14.91-2.13-.07s-7.25-.18-8-5.49c-.72-4.99,6.83-5.36,6.84-5.36v-.07c-.04-.68-.35-1.26-.9-1.66-.55-.42-1.18-.55-1.84-.38h0Z"/>
  </g>
  <path class="cls-1" d="M127.29,21.15c-1.18-.76-1.81-1.49-2.09-2.19-.18-.43-.23-.83-.18-1.21,1.41.68,3,1.49,4.66,2.34-3.35,2.54-5.34,7.91-4.36,19.44l2.14-.15v-.08c-.08-1.18-.05-3.95,2.09-5.92,2.29-2.14,6.97-3.42,16.42-1.38,1.86,2.34,3,4.83,2.87,7.4l1.99.58c3.12-5.34,3.35-10.5,3.5-14.48.13-2.92.2-5.14,1.44-5.87.81-.48,1.64-.5,2.62-.53h.28c.1.33.18.76.28,1.18.18.96.3,1.94.3,2.44l1.84.73c.5-.53.93-1.46,1.28-2.49.28-.86.5-1.81.6-2.67.4-.2.81-.45,1.18-.76.58-.45,1.11-1.06,1.61-1.84l.76-1.18-1.33-.4c-1.84-.55-3.9-1.66-5.26-2.37l-.35-.2c-.1-5.94-5.09-8.26-9.95-10.5l-.65-.3-.91,1.94.68.3c4.38,2.04,8.91,4.1,8.69,9.17l-.03.71.63.3c.3.15.58.3.91.45,1.08.58,2.62,1.39,4.18,2.01-.1.1-.2.18-.3.25-.38.33-.78.53-1.18.68l-.63.25-.08.65c-.03.38-.1.78-.18,1.21-.13-.48-.28-.91-.4-1.18l-.33-.6-.68.05c-.4.03-.73.05-1.01.05-1.31.03-2.39.08-3.65.81-2.22,1.33-2.34,4.03-2.47,7.63-.13,2.95-.28,6.6-1.74,10.4-1.28-4.13-4.91-7.88-9.24-11.1-2.12-1.59-4.41-3.05-6.65-4.36,1.71-.43,3.6-.5,5.49-.6,5.84-.28,11.78-.55,14.55-8.36l-2.01-.71c-2.29,6.47-7.5,6.7-12.64,6.95-2.85.13-5.67.25-8.08,1.23-2.59-1.41-5.06-2.62-7.05-3.6l-.96-.45-.48.96c-.5,1.08-.81,2.47-.2,3.98.43,1.06,1.33,2.17,2.95,3.17l1.13-1.79h0ZM132.05,21.38c2.67,1.49,5.41,3.17,7.93,5.04,1.26.96,2.47,1.94,3.55,2.97-8.41-1.36-12.97.18-15.41,2.44-.33.3-.6.6-.86.93.25-6.67,2.12-9.85,4.78-11.38h0Z"/>
  <g>
    <path class="cls-1" d="M237.79,13.89c-5.73,4.87-16.58,4.33-21.13-1.72-3.43-4.53-7.67-10.14-16.49-10.14h0c-.94-.06-7.85-.29-12.04,5.81l.27.18c.97.67,2.25.55,3.09-.29,3.65-3.66,8.56-3.19,8.58-3.18h.11c7.57,0,11.39,5.06,14.47,9.14,4.88,6.48,14.71,7.46,21.73,4.07.3-.14.57-.29.84-.43.61-.33.99-.87,1.11-1.55s-.05-1.32-.5-1.84l-.02-.04h0Z"/>
    <path class="cls-1" d="M182.48,0l-1.05,3.8-7.51,7.07.79.92c.88,1.03,1.99,1.53,3.32,1.55,1.17.02,2.49-.35,3.98-1.05.17-.08,1.16,1.32,2.32,2.95,1.59,2.26,4.64,6.77,6.92,7.62.68.24,1.41.08,1.93-.43s.67-1.23.42-1.91l-.02-.06c-2.07.77-5.42-4.16-7.18-6.66-1.83-2.58-3.38-4.78-5.47-3.79-1.15.55-2.1.83-2.87.81-.13,0-.25-.01-.37-.04l5.72-5.38.35-.59.5-1.81c.36-1.29-.41-2.64-1.7-2.99L182.48,0h0Z"/>
    <path class="cls-1" d="M202.02,8.17c-2.98.71-7.34,2.64-6.6,7.83.74,5.23,5.57,6.89,8.4,7.41l-6.53,11.09-6.3,2.92c-1.22.56-1.75,2.01-1.18,3.23l.04.1,8.86-4.11.56-.51,8.79-14.91-2.13-.07s-7.25-.18-8-5.49c-.72-4.99,6.83-5.36,6.84-5.36v-.07c-.04-.68-.35-1.26-.9-1.66-.55-.42-1.18-.55-1.84-.38h0Z"/>
  </g>
  <path class="cls-1" d="M250.17,21.15c-1.18-.76-1.81-1.49-2.09-2.19-.18-.43-.23-.83-.18-1.21,1.41.68,3,1.49,4.66,2.34-3.35,2.54-5.34,7.91-4.36,19.44l2.14-.15v-.08c-.08-1.18-.05-3.95,2.09-5.92,2.29-2.14,6.97-3.42,16.42-1.38,1.86,2.34,3,4.83,2.87,7.4l1.99.58c3.12-5.34,3.35-10.5,3.5-14.48.13-2.92.2-5.14,1.44-5.87.81-.48,1.64-.5,2.62-.53h.28c.1.33.18.76.28,1.18.18.96.3,1.94.3,2.44l1.84.73c.5-.53.93-1.46,1.28-2.49.28-.86.5-1.81.6-2.67.4-.2.81-.45,1.18-.76.58-.45,1.11-1.06,1.61-1.84l.76-1.18-1.33-.4c-1.84-.55-3.9-1.66-5.26-2.37l-.35-.2c-.1-5.94-5.09-8.26-9.95-10.5l-.65-.3-.91,1.94.68.3c4.38,2.04,8.91,4.1,8.69,9.17l-.03.71.63.3c.3.15.58.3.91.45,1.08.58,2.62,1.39,4.18,2.01-.1.1-.2.18-.3.25-.38.33-.78.53-1.18.68l-.63.25-.08.65c-.03.38-.1.78-.18,1.21-.13-.48-.28-.91-.4-1.18l-.33-.6-.68.05c-.4.03-.73.05-1.01.05-1.31.03-2.39.08-3.65.81-2.22,1.33-2.34,4.03-2.47,7.63-.13,2.95-.28,6.6-1.74,10.4-1.28-4.13-4.91-7.88-9.24-11.1-2.12-1.59-4.41-3.05-6.65-4.36,1.71-.43,3.6-.5,5.49-.6,5.84-.28,11.78-.55,14.55-8.36l-2.01-.71c-2.29,6.47-7.5,6.7-12.64,6.95-2.85.13-5.67.25-8.08,1.23-2.59-1.41-5.06-2.62-7.05-3.6l-.96-.45-.48.96c-.5,1.08-.81,2.47-.2,3.98.43,1.06,1.33,2.17,2.95,3.17l1.13-1.79h0ZM254.93,21.38c2.67,1.49,5.41,3.17,7.93,5.04,1.26.96,2.47,1.94,3.55,2.97-8.41-1.36-12.97.18-15.41,2.44-.33.3-.6.6-.86.93.25-6.67,2.12-9.85,4.78-11.38h0Z"/>
  <g>
    <path class="cls-1" d="M360.67,13.89c-5.73,4.87-16.58,4.33-21.13-1.72-3.43-4.53-7.67-10.14-16.49-10.14h0c-.94-.06-7.85-.29-12.04,5.81l.27.18c.97.67,2.25.55,3.09-.29,3.65-3.66,8.56-3.19,8.58-3.18h.11c7.57,0,11.39,5.06,14.47,9.14,4.88,6.48,14.71,7.46,21.73,4.07.3-.14.57-.29.84-.43.61-.33.99-.87,1.11-1.55s-.05-1.32-.5-1.84l-.02-.04h0Z"/>
    <path class="cls-1" d="M305.36,0l-1.05,3.8-7.51,7.07.79.92c.88,1.03,1.99,1.53,3.32,1.55,1.17.02,2.49-.35,3.98-1.05.17-.08,1.16,1.32,2.32,2.95,1.59,2.26,4.64,6.77,6.92,7.62.68.24,1.41.08,1.93-.43s.67-1.23.42-1.91l-.02-.06c-2.07.77-5.42-4.16-7.18-6.66-1.83-2.58-3.38-4.78-5.47-3.79-1.15.55-2.1.83-2.87.81-.13,0-.25-.01-.37-.04l5.72-5.38.35-.59.5-1.81c.36-1.29-.41-2.64-1.7-2.99L305.36,0h0Z"/>
    <path class="cls-1" d="M324.9,8.17c-2.98.71-7.34,2.64-6.6,7.83.74,5.23,5.57,6.89,8.4,7.41l-6.53,11.09-6.3,2.92c-1.22.56-1.75,2.01-1.18,3.23l.04.1,8.86-4.11.56-.51,8.79-14.91-2.13-.07s-7.25-.18-8-5.49c-.72-4.99,6.83-5.36,6.84-5.36v-.07c-.04-.68-.35-1.26-.9-1.66-.55-.42-1.18-.55-1.84-.38h0Z"/>
  </g>
  <path class="cls-1" d="M373.04,21.15c-1.18-.76-1.81-1.49-2.09-2.19-.18-.43-.23-.83-.18-1.21,1.41.68,3,1.49,4.66,2.34-3.35,2.54-5.34,7.91-4.36,19.44l2.14-.15v-.08c-.08-1.18-.05-3.95,2.09-5.92,2.29-2.14,6.97-3.42,16.42-1.38,1.86,2.34,3,4.83,2.87,7.4l1.99.58c3.12-5.34,3.35-10.5,3.5-14.48.13-2.92.2-5.14,1.44-5.87.81-.48,1.64-.5,2.62-.53h.28c.1.33.18.76.28,1.18.18.96.3,1.94.3,2.44l1.84.73c.5-.53.93-1.46,1.28-2.49.28-.86.5-1.81.6-2.67.4-.2.81-.45,1.18-.76.58-.45,1.11-1.06,1.61-1.84l.76-1.18-1.33-.4c-1.84-.55-3.9-1.66-5.26-2.37l-.35-.2c-.1-5.94-5.09-8.26-9.95-10.5l-.65-.3-.91,1.94.68.3c4.38,2.04,8.91,4.1,8.69,9.17l-.03.71.63.3c.3.15.58.3.91.45,1.08.58,2.62,1.39,4.18,2.01-.1.1-.2.18-.3.25-.38.33-.78.53-1.18.68l-.63.25-.08.65c-.03.38-.1.78-.18,1.21-.13-.48-.28-.91-.4-1.18l-.33-.6-.68.05c-.4.03-.73.05-1.01.05-1.31.03-2.39.08-3.65.81-2.22,1.33-2.34,4.03-2.47,7.63-.13,2.95-.28,6.6-1.74,10.4-1.28-4.13-4.91-7.88-9.24-11.1-2.12-1.59-4.41-3.05-6.65-4.36,1.71-.43,3.6-.5,5.49-.6,5.84-.28,11.78-.55,14.55-8.36l-2.01-.71c-2.29,6.47-7.5,6.7-12.64,6.95-2.85.13-5.67.25-8.08,1.23-2.59-1.41-5.06-2.62-7.05-3.6l-.96-.45-.48.96c-.5,1.08-.81,2.47-.2,3.98.43,1.06,1.33,2.17,2.95,3.17l1.13-1.79h0ZM377.8,21.38c2.67,1.49,5.41,3.17,7.93,5.04,1.26.96,2.47,1.94,3.55,2.97-8.41-1.36-12.97.18-15.41,2.44-.33.3-.6.6-.86.93.25-6.67,2.12-9.85,4.78-11.38h0Z"/>
  <g>
    <path class="cls-1" d="M483.55,13.89c-5.73,4.87-16.58,4.33-21.13-1.72-3.43-4.53-7.67-10.14-16.49-10.14h0c-.94-.06-7.85-.29-12.04,5.81l.27.18c.97.67,2.25.55,3.09-.29,3.65-3.66,8.56-3.19,8.58-3.18h.11c7.57,0,11.39,5.06,14.47,9.14,4.88,6.48,14.71,7.46,21.73,4.07.3-.14.57-.29.84-.43.61-.33.99-.87,1.11-1.55s-.05-1.32-.5-1.84l-.02-.04h0Z"/>
    <path class="cls-1" d="M428.23,0l-1.05,3.8-7.51,7.07.79.92c.88,1.03,1.99,1.53,3.32,1.55,1.17.02,2.49-.35,3.98-1.05.17-.08,1.16,1.32,2.32,2.95,1.59,2.26,4.64,6.77,6.92,7.62.68.24,1.41.08,1.93-.43s.67-1.23.42-1.91l-.02-.06c-2.07.77-5.42-4.16-7.18-6.66-1.83-2.58-3.38-4.78-5.47-3.79-1.15.55-2.1.83-2.87.81-.13,0-.25-.01-.37-.04l5.72-5.38.35-.59.5-1.81c.36-1.29-.41-2.64-1.7-2.99l-.08-.02h0Z"/>
    <path class="cls-1" d="M447.77,8.17c-2.98.71-7.34,2.64-6.6,7.83.74,5.23,5.57,6.89,8.4,7.41l-6.53,11.09-6.3,2.92c-1.22.56-1.75,2.01-1.18,3.23l.04.1,8.86-4.11.56-.51,8.79-14.91-2.13-.07s-7.25-.18-8-5.49c-.72-4.99,6.83-5.36,6.84-5.36v-.07c-.04-.68-.35-1.26-.9-1.66-.55-.42-1.18-.55-1.84-.38h0Z"/>
  </g>
  <path class="cls-1" d="M495.92,21.15c-1.18-.76-1.81-1.49-2.09-2.19-.18-.43-.23-.83-.18-1.21,1.41.68,3,1.49,4.66,2.34-3.35,2.54-5.34,7.91-4.36,19.44l2.14-.15v-.08c-.08-1.18-.05-3.95,2.09-5.92,2.29-2.14,6.97-3.42,16.42-1.38,1.86,2.34,3,4.83,2.87,7.4l1.99.58c3.12-5.34,3.35-10.5,3.5-14.48.13-2.92.2-5.14,1.44-5.87.81-.48,1.64-.5,2.62-.53h.28c.1.33.18.76.28,1.18.18.96.3,1.94.3,2.44l1.84.73c.5-.53.93-1.46,1.28-2.49.28-.86.5-1.81.6-2.67.4-.2.81-.45,1.18-.76.58-.45,1.11-1.06,1.61-1.84l.76-1.18-1.33-.4c-1.84-.55-3.9-1.66-5.26-2.37l-.35-.2c-.1-5.94-5.09-8.26-9.95-10.5l-.65-.3-.91,1.94.68.3c4.38,2.04,8.91,4.1,8.69,9.17l-.03.71.63.3c.3.15.58.3.91.45,1.08.58,2.62,1.39,4.18,2.01-.1.1-.2.18-.3.25-.38.33-.78.53-1.18.68l-.63.25-.08.65c-.03.38-.1.78-.18,1.21-.13-.48-.28-.91-.4-1.18l-.33-.6-.68.05c-.4.03-.73.05-1.01.05-1.31.03-2.39.08-3.65.81-2.22,1.33-2.34,4.03-2.47,7.63-.13,2.95-.28,6.6-1.74,10.4-1.28-4.13-4.91-7.88-9.24-11.1-2.12-1.59-4.41-3.05-6.65-4.36,1.71-.43,3.6-.5,5.49-.6,5.84-.28,11.78-.55,14.55-8.36l-2.01-.71c-2.29,6.47-7.5,6.7-12.64,6.95-2.85.13-5.67.25-8.08,1.23-2.59-1.41-5.06-2.62-7.05-3.6l-.96-.45-.48.96c-.5,1.08-.81,2.47-.2,3.98.43,1.06,1.33,2.17,2.95,3.17l1.13-1.79h0ZM500.68,21.38c2.67,1.49,5.41,3.17,7.93,5.04,1.26.96,2.47,1.94,3.55,2.97-8.41-1.36-12.97.18-15.41,2.44-.33.3-.6.6-.86.93.25-6.67,2.12-9.85,4.78-11.38h0Z"/>
  <g>
    <path class="cls-1" d="M606.42,13.89c-5.73,4.87-16.58,4.33-21.13-1.72-3.43-4.53-7.67-10.14-16.49-10.14h0c-.94-.06-7.85-.29-12.04,5.81l.27.18c.97.67,2.25.55,3.09-.29,3.65-3.66,8.56-3.19,8.58-3.18h.11c7.57,0,11.39,5.06,14.47,9.14,4.88,6.48,14.71,7.46,21.73,4.07.3-.14.57-.29.84-.43.61-.33.99-.87,1.11-1.55s-.05-1.32-.5-1.84l-.02-.04h0Z"/>
    <path class="cls-1" d="M551.11,0l-1.05,3.8-7.51,7.07.79.92c.88,1.03,1.99,1.53,3.32,1.55,1.17.02,2.49-.35,3.98-1.05.17-.08,1.16,1.32,2.32,2.95,1.59,2.26,4.64,6.77,6.92,7.62.68.24,1.41.08,1.93-.43s.67-1.23.42-1.91l-.02-.06c-2.07.77-5.42-4.16-7.18-6.66-1.83-2.58-3.38-4.78-5.47-3.79-1.15.55-2.1.83-2.87.81-.13,0-.25-.01-.37-.04l5.72-5.38.35-.59.5-1.81c.36-1.29-.41-2.64-1.7-2.99l-.08-.02h0Z"/>
    <path class="cls-1" d="M570.65,8.17c-2.98.71-7.34,2.64-6.6,7.83.74,5.23,5.57,6.89,8.4,7.41l-6.53,11.09-6.3,2.92c-1.22.56-1.75,2.01-1.18,3.23l.04.1,8.86-4.11.56-.51,8.79-14.91-2.13-.07s-7.25-.18-8-5.49c-.72-4.99,6.83-5.36,6.84-5.36v-.07c-.04-.68-.35-1.26-.9-1.66-.55-.42-1.18-.55-1.84-.38h0Z"/>
  </g>
  <path class="cls-1" d="M618.8,21.15c-1.18-.76-1.81-1.49-2.09-2.19-.18-.43-.23-.83-.18-1.21,1.41.68,3,1.49,4.66,2.34-3.35,2.54-5.34,7.91-4.36,19.44l2.14-.15v-.08c-.08-1.18-.05-3.95,2.09-5.92,2.29-2.14,6.97-3.42,16.42-1.38,1.86,2.34,3,4.83,2.87,7.4l1.99.58c3.12-5.34,3.35-10.5,3.5-14.48.13-2.92.2-5.14,1.44-5.87.81-.48,1.64-.5,2.62-.53h.28c.1.33.18.76.28,1.18.18.96.3,1.94.3,2.44l1.84.73c.5-.53.93-1.46,1.28-2.49.28-.86.5-1.81.6-2.67.4-.2.81-.45,1.18-.76.58-.45,1.11-1.06,1.61-1.84l.76-1.18-1.33-.4c-1.84-.55-3.9-1.66-5.26-2.37l-.35-.2c-.1-5.94-5.09-8.26-9.95-10.5l-.65-.3-.91,1.94.68.3c4.38,2.04,8.91,4.1,8.69,9.17l-.03.71.63.3c.3.15.58.3.91.45,1.08.58,2.62,1.39,4.18,2.01-.1.1-.2.18-.3.25-.38.33-.78.53-1.18.68l-.63.25-.08.65c-.03.38-.1.78-.18,1.21-.13-.48-.28-.91-.4-1.18l-.33-.6-.68.05c-.4.03-.73.05-1.01.05-1.31.03-2.39.08-3.65.81-2.22,1.33-2.34,4.03-2.47,7.63-.13,2.95-.28,6.6-1.74,10.4-1.28-4.13-4.91-7.88-9.24-11.1-2.12-1.59-4.41-3.05-6.65-4.36,1.71-.43,3.6-.5,5.49-.6,5.84-.28,11.78-.55,14.55-8.36l-2.01-.71c-2.29,6.47-7.5,6.7-12.64,6.95-2.85.13-5.67.25-8.08,1.23-2.59-1.41-5.06-2.62-7.05-3.6l-.96-.45-.48.96c-.5,1.08-.81,2.47-.2,3.98.43,1.06,1.33,2.17,2.95,3.17l1.13-1.79h0ZM623.55,21.38c2.67,1.49,5.41,3.17,7.93,5.04,1.26.96,2.47,1.94,3.55,2.97-8.41-1.36-12.97.18-15.41,2.44-.33.3-.6.6-.86.93.25-6.67,2.12-9.85,4.78-11.38h0Z"/>
  <g>
    <path class="cls-1" d="M729.3,13.89c-5.73,4.87-16.58,4.33-21.13-1.72-3.43-4.53-7.67-10.14-16.49-10.14h0c-.94-.06-7.85-.29-12.04,5.81l.27.18c.97.67,2.25.55,3.09-.29,3.65-3.66,8.56-3.19,8.58-3.18h.11c7.57,0,11.39,5.06,14.47,9.14,4.88,6.48,14.71,7.46,21.73,4.07.3-.14.57-.29.84-.43.61-.33.99-.87,1.11-1.55s-.05-1.32-.5-1.84l-.02-.04h0Z"/>
    <path class="cls-1" d="M673.99,0l-1.05,3.8-7.51,7.07.79.92c.88,1.03,1.99,1.53,3.32,1.55,1.17.02,2.49-.35,3.98-1.05.17-.08,1.16,1.32,2.32,2.95,1.59,2.26,4.64,6.77,6.92,7.62.68.24,1.41.08,1.93-.43s.67-1.23.42-1.91l-.02-.06c-2.07.77-5.42-4.16-7.18-6.66-1.83-2.58-3.38-4.78-5.47-3.79-1.15.55-2.1.83-2.87.81-.13,0-.25-.01-.37-.04l5.72-5.38.35-.59.5-1.81c.36-1.29-.41-2.64-1.7-2.99l-.08-.02h0Z"/>
    <path class="cls-1" d="M693.53,8.17c-2.98.71-7.34,2.64-6.6,7.83.74,5.23,5.57,6.89,8.4,7.41l-6.53,11.09-6.3,2.92c-1.22.56-1.75,2.01-1.18,3.23l.04.1,8.86-4.11.56-.51,8.79-14.91-2.13-.07s-7.25-.18-8-5.49c-.72-4.99,6.83-5.36,6.84-5.36v-.07c-.04-.68-.35-1.26-.9-1.66-.55-.42-1.18-.55-1.84-.38h0Z"/>
  </g>
</svg>