<?xml version="1.0" encoding="UTF-8"?>
<svg id="Vrstva_1" data-name="Vrstva 1" xmlns="http://www.w3.org/2000/svg" viewBox="0 0 2197.18 396">
  <defs>
    <style>
      .cls-1 {
        fill: #333;
      }
    </style>
  </defs>
  <g>
    <path class="cls-1" d="M122.88,203.75c-19.73,11.35-33.5,34.81-35.37,84.13,1.86-2.42,3.91-4.65,6.33-6.89,18.06-16.75,51.75-28.11,113.92-18.06-8-7.63-16.94-14.89-26.25-21.96-18.61-13.77-38.9-26.24-58.63-37.23Z"/>
    <path class="cls-1" d="M198,0C88.65,0,0,88.65,0,198s88.65,198,198,198,198-88.65,198-198S307.35,0,198,0ZM360.2,175.46c-2.79,2.23-5.77,4.09-8.75,5.58-.74,6.33-2.42,13.4-4.47,19.73-2.61,7.63-5.77,14.52-9.49,18.43l-13.59-5.4c0-3.72-.93-10.98-2.23-18.06-.74-3.16-1.3-6.33-2.05-8.75h-2.05c-7.26.19-13.4.37-19.36,3.91-9.12,5.4-9.68,21.78-10.61,43.37-1.12,29.41-2.79,67.57-25.87,107.03l-14.7-4.28c.93-18.99-7.45-37.41-21.22-54.72-69.8-15.08-104.42-5.58-121.36,10.24-15.82,14.52-16.01,34.99-15.45,43.74v.56l-15.82,1.12c-7.26-85.25,7.45-124.9,32.2-143.7-12.28-6.33-24.01-12.28-34.44-17.31-.37,2.79,0,5.77,1.3,8.93,2.05,5.21,6.7,10.61,15.45,16.19l-8.38,13.22c-11.91-7.44-18.61-15.64-21.78-23.45-4.47-11.17-2.23-21.41,1.49-29.41l3.54-7.07,7.07,3.35c14.7,7.26,32.95,16.19,52.12,26.62,17.87-7.26,38.72-8.19,59.75-9.12,37.97-1.86,76.5-3.54,93.44-51.37l14.89,5.21c-20.47,57.7-64.4,59.75-107.59,61.8-13.96.74-27.92,1.3-40.58,4.47,16.57,9.68,33.5,20.48,49.14,32.2,32.02,23.83,58.82,51.56,68.31,82.09,10.8-28.11,11.91-55.1,12.84-76.87.93-26.62,1.86-46.53,18.24-56.4,9.31-5.4,17.31-5.77,26.99-5.96,2.05,0,4.47-.19,7.45-.37l5.03-.37,2.42,4.47c.93,2.05,2.05,5.21,2.98,8.75.56-3.16,1.12-6.14,1.3-8.93l.56-4.84,4.65-1.86c2.98-1.12,5.96-2.61,8.75-5.03.74-.56,1.49-1.12,2.23-1.86-11.54-4.65-22.89-10.61-30.9-14.89-2.42-1.12-4.47-2.23-6.7-3.35l-4.65-2.23.19-5.21c1.68-37.41-31.83-52.68-64.22-67.75l-5.03-2.23,6.7-14.33,4.84,2.23c35.92,16.57,72.78,33.69,73.52,77.62l2.61,1.49c10.05,5.21,25.31,13.4,38.9,17.5l9.87,2.98-5.58,8.75c-3.72,5.77-7.63,10.24-11.91,13.59Z"/>
  </g>
  <path class="cls-1" d="M756.9,156.9c-21.96-29.03-49.11-65.03-102.99-65.03h-.77c-.09-.09-35.07-3.4-61.03,22.64-5.96,5.96-15.07,6.81-21.96,2.04l-1.96-1.28c29.88-43.41,78.99-41.79,85.71-41.37,62.82,0,92.95,39.92,117.38,72.18,12.09,16.05,30.39,26.65,50.71,31.84C811.94,78.01,727.58,0,625,0c-109.35,0-198,88.65-198,198s88.65,198,198,198,198-88.65,198-198c0-.42-.01-.84-.02-1.27-25.96-5.28-49.87-18.28-66.09-39.83ZM541.2,168.06c-8.26-11.66-15.32-21.62-16.51-21.02-10.64,5.02-20,7.66-28.34,7.49-9.53-.17-17.36-3.75-23.66-11.07l-5.62-6.55,53.45-50.31,7.49-27.07.6.17c9.19,2.47,14.64,12.09,12.09,21.28l-3.58,12.85-2.47,4.17-40.69,38.3c.85.17,1.7.26,2.64.26,5.45.09,12.26-1.87,20.43-5.79,14.81-7.06,25.88,8.6,38.9,26.98,12.51,17.79,36.35,52.86,51.07,47.41l.17.43c1.79,4.85.68,9.96-2.98,13.62s-8.85,4.77-13.7,3.06c-16.26-6.04-37.96-38.13-49.28-54.22ZM647.43,316.59l-4,3.66-63.07,29.28-.26-.68c-4-8.68-.26-18.98,8.43-22.98l44.86-20.77,46.47-78.91c-20.09-3.75-54.48-15.58-59.75-52.77-5.28-36.94,25.79-50.73,46.99-55.75,4.68-1.19,9.19-.26,13.11,2.72,3.92,2.89,6.13,6.98,6.38,11.83v.51c-.09,0-53.8,2.64-48.69,38.13,5.36,37.79,56.77,39.07,56.94,39.07l15.15.51-62.56,106.14Z"/>
  <rect class="cls-1" x="928.9" y="53" width="14" height="290" rx="2.5" ry="2.5"/>
  <g>
    <path class="cls-1" d="M1068.94,58.35c2.18,0,3.28,1.09,3.28,3.28v39.63h21.01c2.38,0,4.37-.08,5.96-.22,1.59-.15,2.98-.47,4.17-.97,1.19-.5,2.28-1.19,3.28-2.09.99-.89,2.04-2.04,3.13-3.43l25.63-34.27c.5-.69.99-1.19,1.49-1.49.5-.3,1.44-.45,2.83-.45h18.48c1.29,0,2.06.42,2.31,1.27.25.84.12,1.62-.37,2.31l-28.91,37.4c-1.69,2.29-3.25,4.22-4.69,5.81-1.44,1.59-2.86,2.98-4.25,4.17,3.87,2.38,7.65,5.96,11.32,10.73l30.55,38.74c.39.5.54,1.27.45,2.31-.1,1.04-.89,1.56-2.38,1.56h-19.07c-1.29,0-2.19-.15-2.68-.45-.5-.3-.99-.79-1.49-1.49l-27.42-35.46c-1.99-2.58-4.12-4.34-6.41-5.29-2.29-.94-5.71-1.42-10.28-1.42h-22.65v40.83c0,2.19-1.09,3.28-3.28,3.28h-16.09c-2.29,0-3.43-1.09-3.43-3.28V61.63c0-2.18,1.14-3.28,3.43-3.28h16.09Z"/>
    <path class="cls-1" d="M1256.23,58.35c7.55,0,13.98.72,19.29,2.16,5.31,1.44,9.63,3.73,12.96,6.85,3.33,3.13,5.74,7.18,7.23,12.14,1.49,4.97,2.24,11.03,2.24,18.18v25.63c0,7.15-.75,13.24-2.24,18.25-1.49,5.02-3.9,9.09-7.23,12.22-3.33,3.13-7.65,5.39-12.96,6.78-5.31,1.39-11.75,2.09-19.29,2.09h-46.04c-7.55,0-13.96-.69-19.22-2.09-5.27-1.39-9.56-3.65-12.89-6.78-3.33-3.13-5.76-7.2-7.3-12.22-1.54-5.01-2.31-11.1-2.31-18.25v-25.63c0-7.15.77-13.21,2.31-18.18,1.54-4.97,3.97-9.01,7.3-12.14,3.33-3.13,7.62-5.41,12.89-6.85,5.26-1.44,11.67-2.16,19.22-2.16h46.04ZM1191.27,121.68c0,3.87.32,7.13.97,9.76.65,2.63,1.71,4.72,3.2,6.26,1.49,1.54,3.5,2.63,6.03,3.28,2.53.65,5.74.97,9.61.97h44.25c3.87,0,7.08-.32,9.61-.97,2.53-.64,4.54-1.74,6.04-3.28,1.49-1.54,2.56-3.62,3.2-6.26.64-2.63.97-5.88.97-9.76v-22.35c0-3.87-.32-7.13-.97-9.76-.65-2.63-1.71-4.72-3.2-6.26-1.49-1.54-3.5-2.63-6.04-3.28-2.53-.65-5.74-.97-9.61-.97h-44.25c-3.87,0-7.08.32-9.61.97-2.53.65-4.54,1.74-6.03,3.28-1.49,1.54-2.56,3.63-3.2,6.26-.65,2.63-.97,5.89-.97,9.76v22.35Z"/>
    <path class="cls-1" d="M1411.94,58.35c7.85,0,11.77,3.78,11.77,11.32v13.56c0,1.79-.13,3.3-.37,4.54-.25,1.24-.65,2.33-1.19,3.28-.55.95-1.29,1.76-2.23,2.46-.95.7-2.16,1.44-3.65,2.23l-78.82,41.57c-.89.5-1.34,1.24-1.34,2.24v1.04c0,.89.5,1.34,1.49,1.34h81.8c2.28,0,3.43,1.09,3.43,3.28v14.15c0,2.19-1.14,3.28-3.43,3.28h-96.4c-4.17,0-7.18-.92-9.01-2.76-1.84-1.84-2.76-4.64-2.76-8.42v-13.56c0-1.79.1-3.3.3-4.54.2-1.24.54-2.33,1.04-3.28.5-.94,1.19-1.76,2.09-2.46.89-.69,2.09-1.44,3.58-2.24l78.52-41.72c.89-.5,1.34-1.24,1.34-2.24v-1.04c0-.89-.5-1.34-1.49-1.34h-81.06c-2.29,0-3.43-1.09-3.43-3.28v-14.16c0-2.18,1.14-3.28,3.43-3.28h96.4Z"/>
    <path class="cls-1" d="M1541.86,58.35c2.28,0,3.43,1.09,3.43,3.28v14.16c0,2.19-1.14,3.28-3.43,3.28h-65.11c-3.87,0-7.08.32-9.61.97-2.53.65-4.57,1.74-6.11,3.28-1.54,1.54-2.61,3.63-3.2,6.26-.6,2.63-.89,5.89-.89,9.76v1.49h84.18c2.18,0,3.28,1.09,3.28,3.28v11.77c0,2.19-1.09,3.28-3.28,3.28h-84.18v2.53c0,3.87.3,7.13.89,9.76.6,2.63,1.66,4.72,3.2,6.26,1.54,1.54,3.58,2.63,6.11,3.28,2.53.65,5.74.97,9.61.97h65.11c2.28,0,3.43,1.09,3.43,3.28v14.15c0,2.19-1.14,3.28-3.43,3.28h-65.56c-7.55,0-13.96-.69-19.22-2.09-5.27-1.39-9.56-3.65-12.89-6.78-3.33-3.13-5.76-7.2-7.3-12.22-1.54-5.01-2.31-11.1-2.31-18.25v-25.63c0-7.15.77-13.21,2.31-18.18,1.54-4.97,3.97-9.01,7.3-12.14,3.33-3.13,7.62-5.41,12.89-6.85,5.26-1.44,11.67-2.16,19.22-2.16h65.56Z"/>
    <path class="cls-1" d="M1579.11,58.35c2.18,0,3.28,1.09,3.28,3.28v59.45c0,3.97.32,7.28.97,9.91.64,2.63,1.71,4.72,3.2,6.26,1.49,1.54,3.5,2.63,6.03,3.28,2.53.65,5.74.97,9.61.97h60.34c2.18,0,3.28,1.09,3.28,3.28v14.6c0,2.19-1.09,3.28-3.28,3.28h-61.24c-7.55,0-13.96-.69-19.22-2.09-5.27-1.39-9.56-3.65-12.89-6.78-3.33-3.13-5.76-7.2-7.3-12.22-1.54-5.01-2.31-11.1-2.31-18.25v-61.69c0-2.18,1.14-3.28,3.43-3.28h16.09Z"/>
    <path class="cls-1" d="M1068.64,233.35c2.18,0,3.28,1.09,3.28,3.28v59.45c0,3.97.32,7.28.97,9.91.65,2.63,1.71,4.72,3.2,6.26,1.49,1.54,3.5,2.63,6.03,3.28,2.53.65,5.74.97,9.61.97h41.27c3.88,0,7.08-.32,9.61-.97,2.53-.64,4.54-1.74,6.04-3.28,1.49-1.54,2.53-3.62,3.13-6.26.6-2.63.89-5.93.89-9.91v-59.45c0-2.18,1.09-3.28,3.28-3.28h16.24c2.18,0,3.28,1.09,3.28,3.28v61.69c0,7.15-.74,13.24-2.23,18.25-1.49,5.02-3.9,9.09-7.23,12.22-3.33,3.13-7.65,5.39-12.96,6.78-5.31,1.39-11.75,2.09-19.29,2.09h-42.91c-7.55,0-13.96-.69-19.22-2.09-5.27-1.39-9.56-3.65-12.89-6.78-3.33-3.13-5.76-7.2-7.3-12.22-1.54-5.01-2.31-11.1-2.31-18.25v-61.69c0-2.18,1.14-3.28,3.43-3.28h16.09Z"/>
    <path class="cls-1" d="M1330.14,233.35c10.23,0,17.51,2.04,21.83,6.11,4.32,4.07,6.48,10.23,6.48,18.48v7.15c0,8.34-3.18,14.65-9.54,18.92,6.85,3.97,10.28,10.38,10.28,19.22v8.64c0,3.97-.45,7.55-1.34,10.73-.89,3.18-2.36,5.89-4.4,8.12-2.04,2.24-4.74,3.95-8.12,5.14-3.38,1.19-7.55,1.79-12.52,1.79h-88.51c-2.98,0-4.47-1.49-4.47-4.47v-95.36c0-2.98,1.49-4.47,4.47-4.47h85.82ZM1262.64,276.71h61.09c4.97,0,8.34-.74,10.13-2.23,1.79-1.49,2.68-3.67,2.68-6.56v-5.07c0-3.08-.87-5.34-2.61-6.78-1.74-1.44-4.54-2.16-8.42-2.16h-60.94c-1.29,0-1.94.65-1.94,1.94v20.86ZM1262.64,292.95v22.2c0,1.29.65,1.94,1.94,1.94h61.09c3.97,0,6.8-.72,8.49-2.16,1.69-1.44,2.53-3.75,2.53-6.93v-5.66c0-3.08-.92-5.41-2.76-7-1.84-1.59-5.24-2.38-10.21-2.38h-61.09Z"/>
    <path class="cls-1" d="M1460.81,233.35c7.55,0,13.98.72,19.29,2.16,5.31,1.44,9.63,3.73,12.96,6.85,3.33,3.13,5.74,7.18,7.23,12.14,1.49,4.97,2.24,11.03,2.24,18.18v25.63c0,7.15-.75,13.24-2.24,18.25-1.49,5.02-3.9,9.09-7.23,12.22-3.33,3.13-7.65,5.39-12.96,6.78-5.31,1.39-11.75,2.09-19.29,2.09h-46.04c-7.55,0-13.96-.69-19.22-2.09-5.27-1.39-9.56-3.65-12.89-6.78-3.33-3.13-5.76-7.2-7.3-12.22-1.54-5.01-2.31-11.1-2.31-18.25v-25.63c0-7.15.77-13.21,2.31-18.18,1.54-4.97,3.97-9.01,7.3-12.14,3.33-3.13,7.62-5.41,12.89-6.85,5.26-1.44,11.67-2.16,19.22-2.16h46.04ZM1395.85,296.68c0,3.87.32,7.13.97,9.76.65,2.63,1.71,4.72,3.2,6.26,1.49,1.54,3.5,2.63,6.03,3.28,2.53.65,5.74.97,9.61.97h44.25c3.87,0,7.08-.32,9.61-.97,2.53-.64,4.54-1.74,6.04-3.28,1.49-1.54,2.56-3.62,3.2-6.26.64-2.63.97-5.88.97-9.76v-22.35c0-3.87-.32-7.13-.97-9.76-.65-2.63-1.71-4.72-3.2-6.26-1.49-1.54-3.5-2.63-6.04-3.28-2.53-.65-5.74-.97-9.61-.97h-44.25c-3.87,0-7.08.32-9.61.97-2.53.65-4.54,1.74-6.03,3.28-1.49,1.54-2.56,3.63-3.2,6.26-.65,2.63-.97,5.89-.97,9.76v22.35Z"/>
    <path class="cls-1" d="M1537.99,233.35c2.18,0,3.28,1.09,3.28,3.28v38.74h69.73v-38.74c0-2.18,1.09-3.28,3.28-3.28h16.09c2.28,0,3.43,1.09,3.43,3.28v97.74c0,2.19-1.14,3.28-3.43,3.28h-16.09c-2.19,0-3.28-1.09-3.28-3.28v-39.63h-69.73v39.63c0,2.19-1.09,3.28-3.28,3.28h-16.09c-2.29,0-3.43-1.09-3.43-3.28v-97.74c0-2.18,1.14-3.28,3.43-3.28h16.09Z"/>
    <path class="cls-1" d="M1757.02,233.35c2.28,0,3.43,1.09,3.43,3.28v14.16c0,2.19-1.14,3.28-3.43,3.28h-65.11c-3.87,0-7.08.32-9.61.97-2.53.65-4.57,1.74-6.11,3.28-1.54,1.54-2.61,3.63-3.2,6.26-.6,2.63-.89,5.89-.89,9.76v1.49h84.18c2.18,0,3.28,1.09,3.28,3.28v11.77c0,2.19-1.09,3.28-3.28,3.28h-84.18v2.53c0,3.87.3,7.13.89,9.76.6,2.63,1.66,4.72,3.2,6.26,1.54,1.54,3.58,2.63,6.11,3.28,2.53.65,5.74.97,9.61.97h65.11c2.28,0,3.43,1.09,3.43,3.28v14.15c0,2.19-1.14,3.28-3.43,3.28h-65.56c-7.55,0-13.96-.69-19.22-2.09-5.27-1.39-9.56-3.65-12.89-6.78-3.33-3.13-5.76-7.2-7.3-12.22-1.54-5.01-2.31-11.1-2.31-18.25v-25.63c0-7.15.77-13.21,2.31-18.18,1.54-4.97,3.97-9.01,7.3-12.14,3.33-3.13,7.62-5.41,12.89-6.85,5.26-1.44,11.67-2.16,19.22-2.16h65.56Z"/>
    <path class="cls-1" d="M1804.55,233.35c2.18,0,4.07.15,5.66.45,1.59.3,2.98.87,4.17,1.71,1.19.85,2.26,1.99,3.2,3.43.94,1.44,1.91,3.35,2.91,5.74l30.99,71.52c.4.89,1.09,1.34,2.09,1.34h1.79c.99,0,1.69-.45,2.09-1.34l30.99-71.52c.99-2.38,1.96-4.3,2.91-5.74.94-1.44,2.01-2.58,3.2-3.43,1.19-.84,2.56-1.42,4.1-1.71,1.54-.3,3.4-.45,5.59-.45h15.94c5.16,0,8.64,1.17,10.43,3.5,1.79,2.33,2.68,6.33,2.68,12v85.53c0,2.19-1.14,3.28-3.43,3.28h-15.2c-2.19,0-3.28-1.09-3.28-3.28v-77.78c0-.99-.4-1.49-1.19-1.49h-1.34c-.99,0-1.64.4-1.94,1.19l-30.1,66.75c-1.19,2.68-2.41,4.94-3.65,6.78-1.24,1.84-2.58,3.35-4.02,4.54-1.44,1.19-3.08,2.04-4.92,2.53-1.84.5-4,.75-6.48.75h-7.15c-2.48,0-4.64-.25-6.48-.75-1.84-.5-3.48-1.34-4.92-2.53-1.44-1.19-2.78-2.71-4.02-4.54-1.24-1.84-2.46-4.1-3.65-6.78l-30.1-66.75c-.3-.79-.95-1.19-1.94-1.19h-1.34c-.8,0-1.19.5-1.19,1.49v77.78c0,2.19-1.09,3.28-3.28,3.28h-15.2c-2.29,0-3.43-1.09-3.43-3.28v-85.53c0-5.66.89-9.66,2.68-12,1.79-2.33,5.31-3.5,10.58-3.5h16.24Z"/>
    <path class="cls-1" d="M1969.93,233.35c2.18,0,3.28,1.09,3.28,3.28v39.63h21.01c2.38,0,4.37-.08,5.96-.22,1.59-.15,2.98-.47,4.17-.97,1.19-.5,2.28-1.19,3.28-2.09.99-.89,2.04-2.04,3.13-3.43l25.63-34.27c.5-.69.99-1.19,1.49-1.49.5-.3,1.44-.45,2.83-.45h18.48c1.29,0,2.06.42,2.31,1.27.25.84.12,1.62-.37,2.31l-28.91,37.4c-1.69,2.29-3.25,4.22-4.69,5.81-1.44,1.59-2.86,2.98-4.25,4.17,3.87,2.38,7.65,5.96,11.32,10.73l30.55,38.74c.4.5.54,1.27.45,2.31-.1,1.04-.89,1.56-2.38,1.56h-19.07c-1.29,0-2.19-.15-2.68-.45-.5-.3-.99-.79-1.49-1.49l-27.42-35.46c-1.99-2.58-4.12-4.34-6.41-5.29-2.29-.94-5.71-1.42-10.28-1.42h-22.65v40.83c0,2.19-1.09,3.28-3.28,3.28h-16.09c-2.29,0-3.43-1.09-3.43-3.28v-97.74c0-2.18,1.14-3.28,3.43-3.28h16.09Z"/>
    <path class="cls-1" d="M2088.83,233.35c1.59,0,2.78.6,3.58,1.79l39.78,53.79,40.08-53.79c.79-1.19,1.99-1.79,3.58-1.79h19.52c.79,0,1.34.32,1.64.97.3.65.2,1.32-.3,2.01l-53.49,69.43v28.61c0,2.19-1.09,3.28-3.28,3.28h-16.09c-2.29,0-3.43-1.09-3.43-3.28v-28.61l-52.89-69.43c-.5-.69-.62-1.36-.37-2.01.25-.65.82-.97,1.71-.97h19.97Z"/>
  </g>
</svg>